<?xml version="1.0" encoding="utf-8"?>
<svg id="master-artboard" viewBox="0 0 309.25 199.01" xmlns="http://www.w3.org/2000/svg" width="309.25px" height="199.00999450683594px"><defs><radialGradient id="radial-gradient" cx="60.7" cy="122.78" r="99.36" gradientUnits="userSpaceOnUse"><stop offset="0" stop-color="#fff"/><stop offset="1" stop-color="#010101"/></radialGradient><radialGradient id="radial-gradient-2" cx="97.08" cy="153.17" r="28.38" gradientUnits="userSpaceOnUse"><stop offset="0" stop-color="#fff"/><stop offset="1" stop-color="#f1f1f1"/></radialGradient><pattern id="Új_mintázatos_színtár_1" data-name="Új mintázatos színtár 1" width="38.25" height="55" patternUnits="userSpaceOnUse" viewBox="0 0 38.24 55"><path d="M 0 0 H 38.25 V 55 H 0 V 0 Z" class="cls-1" style="fill: none;"/><path d="M 0 0 H 38.25 V 55 H 0 V 0 Z" class="cls-2" style="fill: rgb(255, 255, 255);"/></pattern><pattern id="Új_mintázatos_színtár_1-3" data-name="Új mintázatos színtár 1" x="-13.76" y="-22.34" width="38.25" height="55" patternUnits="userSpaceOnUse" viewBox="0 0 38.24 55"><path d="M 0 0 H 38.25 V 55 H 0 V 0 Z" class="cls-1" style="fill: none;"/><path d="M 0 0 H 38.25 V 55 H 0 V 0 Z" class="cls-2" style="fill: rgb(255, 255, 255);"/></pattern><pattern id="Új_mintázatos_színtár_1-9" data-name="Új mintázatos színtár 1" width="38.25" height="55" patternTransform="translate(-15.62 -58.57) scale(1.04)" patternUnits="userSpaceOnUse" viewBox="0 0 38.24 55"><path d="M 0 0 H 38.25 V 55 H 0 V 0 Z" class="cls-1" style="fill: none;"/><path d="M 0 0 H 38.25 V 55 H 0 V 0 Z" class="cls-2" style="fill: rgb(255, 255, 255);"/></pattern><pattern id="Új_mintázatos_színtár_1-13" data-name="Új mintázatos színtár 1" width="38.25" height="55" patternTransform="translate(-1.87 -36.24) scale(1.04)" patternUnits="userSpaceOnUse" viewBox="0 0 38.24 55"><path d="M 0 0 H 38.25 V 55 H 0 V 0 Z" class="cls-1" style="fill: none;"/><path d="M 0 0 H 38.25 V 55 H 0 V 0 Z" class="cls-2" style="fill: rgb(255, 255, 255);"/></pattern><linearGradient id="Névtelen_színátmenet_3" x1="167.86" y1="93.34" x2="167.86" y2="40.57" gradientUnits="userSpaceOnUse"><stop offset="0" stop-color="#fde4d1"/><stop offset="0.39" stop-color="#fbe1ce"/><stop offset="0.69" stop-color="#f5d8c4"/><stop offset="0.97" stop-color="#eac8b3"/><stop offset="1" stop-color="#e9c6b1"/></linearGradient><pattern id="Új_mintázatos_színtár_1-25" data-name="Új mintázatos színtár 1" width="38.25" height="55" patternTransform="translate(13.9 -9.41) scale(0.87)" patternUnits="userSpaceOnUse" viewBox="0 0 38.24 55"><path d="M 0 0 H 38.25 V 55 H 0 V 0 Z" class="cls-1" style="fill: none;"/><path d="M 0 0 H 38.25 V 55 H 0 V 0 Z" class="cls-2" style="fill: rgb(255, 255, 255);"/></pattern></defs><title>eezy_24</title><g class="cls-3" style="opacity: 0.2;"><path class="cls-4" d="M212.75,63.57v60.14h51.32V63.57Zm48.8,57.55H215.27v-55h46.28Z" transform="translate(-13.76 -22.34)" style="fill: rgb(75, 175, 99);"/><path d="M 208.050003 50.049999 H 241.260002 V 92.32 H 208.050003 V 50.049999 Z" class="cls-4" style="fill: rgb(75, 175, 99);"/></g><g id="_Csoport_" data-name="&lt;Csoport&gt;" class="cls-3" style="opacity: 0.2;"><g id="_Csoport_2" data-name="&lt;Csoport&gt;"><path id="_Görbe_" data-name="&lt;Görbe&gt;" class="cls-4" d="M168,22.34a154.2,154.2,0,0,0-154.2,154.2h308.4A154.2,154.2,0,0,0,168,22.34Z" transform="translate(-13.76 -22.34)" style="fill: rgb(11, 93, 226);"/></g></g><path class="cls-5" d="M142.64,153.89H117L77.07,90.29h65.57A1.74,1.74,0,0,1,144.37,92v60.15a1.73,1.73,0,0,1-1.73,1.72Z" transform="translate(-13.76 -22.34)" style="fill: url('#radial-gradient');"/><path class="cls-6" d="M50.31,150.07v2.1a2.46,2.46,0,0,0,2.46,2.46h89.87a2.46,2.46,0,0,0,2.46-2.46v-2.1Z" transform="translate(-13.76 -22.34)" style="fill: rgb(241, 241, 241);"/><path class="cls-7" d="M115,150.6l2.07,3.29h25.62a1.73,1.73,0,0,0,1.73-1.72V150.6Z" transform="translate(-13.76 -22.34)" style="fill: url('#radial-gradient-2');"/><path class="cls-8" d="M144.93,152.17a2.29,2.29,0,0,1-2.29,2.28H52.77a2.29,2.29,0,0,1-2.28-2.28V92a2.29,2.29,0,0,1,2.28-2.28h89.87A2.29,2.29,0,0,1,144.93,92Z" transform="translate(-13.76 -22.34)" style="fill: rgb(153, 158, 163);"/><path d="M 40.459999 71.07 H 127.440002 V 124.509998 H 40.459999 V 71.07 Z" class="cls-2" style="fill: rgb(255, 255, 255);"/><path class="cls-9" d="M108.51,160.83l-.88-6.38H87.79l-.88,6.38a5.33,5.33,0,0,1-2.48,3.77l-1.53.74h29.61L111,164.6A5.32,5.32,0,0,1,108.51,160.83Z" transform="translate(-13.76 -22.34)" style="fill: rgb(78, 91, 95);"/><path class="cls-10" d="M226.19,122c0-15.8-15.26-24.55-25.63-28.8-9.54-3.9-19.67-6.84-19.67-6.84-2.39,9.36-11.8,10.49-13.62,10.62a13.94,13.94,0,0,1-12.54-10.62s-8.22,2.71-19.67,6.84c-9.15,3.31-23.9,11.9-25.49,26.22a61.23,61.23,0,0,1-1.56,9c-2.45,9.12-8.47,24.66-21,24.66v22.43H226.1S226.19,124.72,226.19,122Z" transform="translate(-13.76 -22.34)" style="fill: rgb(11, 93, 226);"/><path id="Shape_11_copy" data-name="Shape 11 copy" class="cls-11" d="M150.17,67c0-.87-1.1-1.56-2.27-1.41h0a2.48,2.48,0,0,0-1.69,1.15,3,3,0,0,0-.35,1.31c0,.14-.22,7.86,4.86,7.86C150.48,73.42,150.27,69.07,150.17,67Z" transform="translate(-13.76 -22.34)" style="fill: rgb(233, 198, 177);"/><path id="Shape_11_copy-2" data-name="Shape 11 copy" class="cls-11" d="M185.62,67c0-.87,1.1-1.56,2.27-1.41h0a2.48,2.48,0,0,1,1.69,1.15A3,3,0,0,1,190,68c0,.14.22,7.86-4.86,7.86C185.31,73.42,185.52,69.07,185.62,67Z" transform="translate(-13.76 -22.34)" style="fill: rgb(233, 198, 177);"/><g id="_Csoport_3" data-name="&lt;Csoport&gt;"><g id="_Csoport_4" data-name="&lt;Csoport&gt;"><path id="_Görbe_2" data-name="&lt;Görbe&gt;" class="cls-12" d="M322.19,177.18H14.93a.82.82,0,0,1-.81-.82.81.81,0,0,1,.81-.81H322.19a.81.81,0,0,1,.81.81A.82.82,0,0,1,322.19,177.18Z" transform="translate(-13.76 -22.34)" style="fill: rgb(203, 206, 216);"/></g></g><path class="cls-13" d="M196.6,155.87h1.19a.72.72,0,0,0,.72-.72v-7.63a.73.73,0,0,0-.72-.72H196.6v-1.43h75.87a2.15,2.15,0,0,1,2.15,2.15v7.63a2.15,2.15,0,0,1-2.15,2.15H196.6Z" transform="translate(-13.76 -22.34)" style="fill: rgb(11, 93, 226);"/><path class="cls-14" d="M197.79,146.8h74.68a.73.73,0,0,1,.72.72v7.63a.72.72,0,0,1-.72.72H197.79Z" transform="translate(-13.76 -22.34)" style="fill: url('#Új_mintázatos_színtár_1');"/><path d="M 176.059998 135.009995 H 261.199997 V 153.139994 H 176.059998 V 135.009995 Z" class="cls-4" style="fill: rgb(4, 30, 124);"/><path d="M 238.410004 135.009995 H 251.060003 V 153.139994 H 238.410004 V 135.009995 Z" class="cls-15" style="fill: rgb(233, 236, 248);"/><path d="M 204.460007 113.800003 H 260.860008 V 122.970003 H 204.460007 V 113.800003 Z" class="cls-16" style="fill: rgb(250, 214, 157);"/><path d="M 249.550003 113.800003 H 251.510003 V 122.970003 H 249.550003 V 113.800003 Z" class="cls-17" style="fill: url('#Új_mintázatos_színtár_1-3');"/><path d="M 212.649994 113.800003 H 214.609994 V 122.970003 H 212.649994 V 113.800003 Z" class="cls-17" style="fill: url('#Új_mintázatos_színtár_1-3');"/><path class="cls-14" d="M255.93,140.72a2.57,2.57,0,1,1,2.56,2.56A2.56,2.56,0,0,1,255.93,140.72Z" transform="translate(-13.76 -22.34)" style="fill: url('#Új_mintázatos_színtár_1');"/><path class="cls-18" d="M116.9,169.54H221.76V104.6a2.68,2.68,0,0,0-2.67-2.67H116.9a2.68,2.68,0,0,0-2.68,2.67v64.94Z" transform="translate(-13.76 -22.34)" style="fill: rgb(29, 27, 55);"/><path d="M 105.25 85.370003 H 203.190002 V 142.120003 H 105.25 V 85.370003 Z" class="cls-19" style="fill: rgb(74, 155, 247);"/><path d="M 114.160004 90.529999 H 194.310005 V 136.969997 H 114.160004 V 90.529999 Z" class="cls-20" style="fill: url('#Új_mintázatos_színtár_1-9');"/><path d="M 114.160004 90.529999 H 194.310005 V 95.649999 H 114.160004 V 90.529999 Z" class="cls-12" style="fill: rgb(203, 206, 216);"/><path d="M 117.660004 98.639999 H 163.620003 V 124.099998 H 117.660004 V 98.639999 Z" class="cls-4" style="fill: rgb(74, 155, 247);"/><path d="M 166.720001 98.639999 H 176.980001 V 106.319999 H 166.720001 V 98.639999 Z" class="cls-4" style="fill: rgb(74, 155, 247);"/><path d="M 117.870003 126.389999 H 129.360003 V 127.179999 H 117.870003 V 126.389999 Z" class="cls-12" style="fill: rgb(203, 206, 216);"/><path d="M 117.870003 128.449997 H 163.620003 V 128.839997 H 117.870003 V 128.449997 Z" class="cls-12" style="fill: rgb(203, 206, 216);"/><path d="M 117.870003 129.729996 H 163.620003 V 130.119996 H 117.870003 V 129.729996 Z" class="cls-12" style="fill: rgb(203, 206, 216);"/><path d="M 117.870003 131 H 163.620003 V 131.39 H 117.870003 V 131 Z" class="cls-12" style="fill: rgb(203, 206, 216);"/><path d="M 117.870003 132.279999 H 163.620003 V 132.669999 H 117.870003 V 132.279999 Z" class="cls-12" style="fill: rgb(203, 206, 216);"/><path d="M 117.870003 133.550003 H 154.240002 V 133.940003 H 117.870003 V 133.550003 Z" class="cls-12" style="fill: rgb(203, 206, 216);"/><path d="M 178.889999 101.510002 H 191.999999 V 101.900002 H 178.889999 V 101.510002 Z" class="cls-12" style="fill: rgb(203, 206, 216);"/><path d="M 178.889999 102.790001 H 191.999999 V 103.180001 H 178.889999 V 102.790001 Z" class="cls-12" style="fill: rgb(203, 206, 216);"/><path d="M 178.889999 104.059998 H 191.999999 V 104.449998 H 178.889999 V 104.059998 Z" class="cls-12" style="fill: rgb(203, 206, 216);"/><path d="M 178.889999 105.339996 H 191.999999 V 105.729996 H 178.889999 V 105.339996 Z" class="cls-12" style="fill: rgb(203, 206, 216);"/><path d="M 128.110001 92.019997 H 185.880001 V 94.079997 H 128.110001 V 92.019997 Z" class="cls-20" style="fill: url('#Új_mintázatos_színtár_1-9');"/><path d="M 178.889999 99.160004 H 187.73 V 99.950004 H 178.889999 V 99.160004 Z" class="cls-21" style="fill: rgb(179, 179, 179);"/><path d="M 178.889999 111.080002 H 191.999999 V 111.470002 H 178.889999 V 111.080002 Z" class="cls-12" style="fill: rgb(203, 206, 216);"/><path d="M 178.889999 112.349998 H 191.999999 V 112.739998 H 178.889999 V 112.349998 Z" class="cls-12" style="fill: rgb(203, 206, 216);"/><path d="M 178.889999 113.629997 H 191.999999 V 114.019997 H 178.889999 V 113.629997 Z" class="cls-12" style="fill: rgb(203, 206, 216);"/><path d="M 178.889999 114.910004 H 191.999999 V 115.300004 H 178.889999 V 114.910004 Z" class="cls-12" style="fill: rgb(203, 206, 216);"/><path d="M 178.889999 108.730003 H 187.73 V 109.520003 H 178.889999 V 108.730003 Z" class="cls-21" style="fill: rgb(179, 179, 179);"/><path d="M 178.889999 120.639999 H 191.999999 V 121.029999 H 178.889999 V 120.639999 Z" class="cls-12" style="fill: rgb(203, 206, 216);"/><path d="M 178.889999 121.919998 H 191.999999 V 122.309998 H 178.889999 V 121.919998 Z" class="cls-12" style="fill: rgb(203, 206, 216);"/><path d="M 178.889999 123.190002 H 191.999999 V 123.580002 H 178.889999 V 123.190002 Z" class="cls-12" style="fill: rgb(203, 206, 216);"/><path d="M 178.889999 124.470001 H 191.999999 V 124.860001 H 178.889999 V 124.470001 Z" class="cls-12" style="fill: rgb(203, 206, 216);"/><path d="M 178.889999 118.290001 H 187.73 V 119.080001 H 178.889999 V 118.290001 Z" class="cls-21" style="fill: rgb(179, 179, 179);"/><path d="M 178.889999 130.210007 H 191.999999 V 130.600007 H 178.889999 V 130.210007 Z" class="cls-12" style="fill: rgb(203, 206, 216);"/><path d="M 178.889999 131.479996 H 191.999999 V 131.869996 H 178.889999 V 131.479996 Z" class="cls-12" style="fill: rgb(203, 206, 216);"/><path d="M 178.889999 132.759995 H 191.999999 V 133.149994 H 178.889999 V 132.759995 Z" class="cls-12" style="fill: rgb(203, 206, 216);"/><path d="M 178.889999 134.039993 H 191.999999 V 134.429993 H 178.889999 V 134.039993 Z" class="cls-12" style="fill: rgb(203, 206, 216);"/><path d="M 178.889999 127.860001 H 187.73 V 128.650001 H 178.889999 V 127.860001 Z" class="cls-21" style="fill: rgb(179, 179, 179);"/><path d="M 166.720001 108.169998 H 176.980001 V 115.859998 H 166.720001 V 108.169998 Z" class="cls-4" style="fill: rgb(74, 155, 247);"/><path d="M 166.720001 117.709999 H 176.980001 V 125.389999 H 166.720001 V 117.709999 Z" class="cls-4" style="fill: rgb(74, 155, 247);"/><path d="M 166.720001 127.239998 H 176.980001 V 134.919998 H 166.720001 V 127.239998 Z" class="cls-4" style="fill: rgb(74, 155, 247);"/><path class="cls-22" d="M231.68,169.44H104.31c0,.22-.07.42-.07.65V172c0,3.2,2.59,3.39,5.8,3.39h115.9c3.19,0,5.81-.19,5.81-3.39v-1.94C231.75,169.86,231.69,169.66,231.68,169.44Z" transform="translate(-13.76 -22.34)" style="fill: url('#Új_mintázatos_színtár_1-13');"/><path class="cls-12" d="M154.37,169.44c.06,1.68.57,2.41,1.21,2.41H180.4c.64,0,1.15-.73,1.22-2.41Z" transform="translate(-13.76 -22.34)" style="fill: rgb(203, 206, 216);"/><path class="cls-22" d="M153.58,129.14A4.82,4.82,0,1,0,158.4,134,4.82,4.82,0,0,0,153.58,129.14Zm2,5L152.42,136c-.21.13-.38,0-.38-.22v-3.64c0-.24.17-.34.38-.22l3.16,1.82A.23.23,0,0,1,155.58,134.18Z" transform="translate(-13.76 -22.34)" style="fill: url('#Új_mintázatos_színtár_1-13');"/><path class="cls-22" d="M185.6,122.71a2.29,2.29,0,1,0,2.28,2.28A2.28,2.28,0,0,0,185.6,122.71Zm1,2.39-1.5.86c-.1.06-.18,0-.18-.1v-1.73c0-.11.08-.16.18-.1l1.5.86C186.65,125,186.65,125,186.55,125.1Z" transform="translate(-13.76 -22.34)" style="fill: url('#Új_mintázatos_színtár_1-13');"/><path class="cls-22" d="M185.6,132.07a2.29,2.29,0,1,0,2.28,2.28A2.28,2.28,0,0,0,185.6,132.07Zm1,2.39-1.5.86c-.1.06-.18,0-.18-.1v-1.73c0-.11.08-.16.18-.1l1.5.86C186.65,134.31,186.65,134.4,186.55,134.46Z" transform="translate(-13.76 -22.34)" style="fill: url('#Új_mintázatos_színtár_1-13');"/><path class="cls-22" d="M185.6,141.43a2.28,2.28,0,1,0,2.28,2.28A2.28,2.28,0,0,0,185.6,141.43Zm1,2.39-1.5.86c-.1.06-.18,0-.18-.11v-1.72c0-.12.08-.17.18-.11l1.5.87C186.65,143.66,186.65,143.76,186.55,143.82Z" transform="translate(-13.76 -22.34)" style="fill: url('#Új_mintázatos_színtár_1-13');"/><path class="cls-22" d="M185.6,150.79a2.28,2.28,0,1,0,2.28,2.28A2.28,2.28,0,0,0,185.6,150.79Zm1,2.39-1.5.86c-.1.06-.18,0-.18-.11v-1.72c0-.12.08-.16.18-.11l1.5.87C186.65,153,186.65,153.12,186.55,153.18Z" transform="translate(-13.76 -22.34)" style="fill: url('#Új_mintázatos_színtár_1-13');"/><path class="cls-23" d="M131.78,115.1a1.12,1.12,0,1,1-1.4-.75A1.12,1.12,0,0,1,131.78,115.1Z" transform="translate(-13.76 -22.34)" style="fill: rgb(242, 146, 119);"/><path d="M 121.719998 93.089996 A 1.12 1.12 0 0 1 120.599998 94.209996 A 1.12 1.12 0 0 1 119.479998 93.089996 A 1.12 1.12 0 0 1 120.599998 91.969996 A 1.12 1.12 0 0 1 121.719998 93.089996 Z" class="cls-19" style="fill: rgb(255, 206, 68);"/><path d="M 125.37 93.089996 A 1.12 1.12 0 0 1 124.25 94.209996 A 1.12 1.12 0 0 1 123.13 93.089996 A 1.12 1.12 0 0 1 124.25 91.969996 A 1.12 1.12 0 0 1 125.37 93.089996 Z" class="cls-4" style="fill: rgb(75, 175, 99);"/><path d="M 185.869995 92.019997 H 192.169995 V 94.209997 H 185.869995 V 92.019997 Z" class="cls-18" style="fill: rgb(29, 27, 55);"/><path class="cls-4" d="M168.82,104.88a1.09,1.09,0,1,1-1.09-1.09A1.09,1.09,0,0,1,168.82,104.88Z" transform="translate(-13.76 -22.34)" style="fill: rgb(75, 175, 99);"/><path class="cls-2" d="M82.29,161.07c-9.33,0-16.89,6.55-16.89,14.64H99.18C99.18,167.62,91.62,161.07,82.29,161.07Z" transform="translate(-13.76 -22.34)" style="fill: rgb(255, 255, 255);"/><path class="cls-24" d="M91.83,160.21c.67-3.58,2.42-5.84,3.68-5.84a3.5,3.5,0,0,0,0-7c-3.61,0-6.76,2.41-8.74,6.2a3.49,3.49,0,0,0-5.36-.4,3.46,3.46,0,0,0-4.75-.24,4,4,0,0,0-2.48-.83c-1.94,0-3.5,1.27-3.5,2.83v10.48c0,1.57,1.56,2.83,3.5,2.83a4.39,4.39,0,0,0,1.22-.18v.49a3.5,3.5,0,0,0,3.5,3.5A3.46,3.46,0,0,0,81.41,171a3.5,3.5,0,0,0,6-2.43v-1.9a3.08,3.08,0,0,0,.61.07c3.7,0,6.71,2.46,6.71,5.49a3.5,3.5,0,1,0,7,0C101.75,166.52,97.55,161.72,91.83,160.21Z" transform="translate(-13.76 -22.34)" style="fill: rgb(253, 228, 209);"/><path class="cls-25" d="M186.9,64.54c0-18.89-8.52-24-19-24h0c-10.51,0-19,6.13-19,24h0c0,23.37,8.53,28.79,19.05,28.79h0c10.52,0,19-5.79,19-28.79h0Z" transform="translate(-13.76 -22.34)" style="fill: url('#Névtelen_színátmenet_3');"/><path class="cls-26" d="M167.86,93.34h0c-5.53,0-10.5-1.5-14-6.3a14,14,0,0,0,28-.16C178.36,91.74,173.38,93.34,167.86,93.34Z" transform="translate(-13.76 -22.34)" style="fill: rgb(231, 181, 162);"/><path class="cls-4" d="M178.2,68.57h0A1.47,1.47,0,0,1,176.72,70h0a1.48,1.48,0,1,0,1.48-1.48Z" transform="translate(-13.76 -22.34)" style="fill: rgb(74, 155, 247);"/><path class="cls-4" d="M157.89,68.57h0A1.49,1.49,0,0,1,156.41,70h0a1.48,1.48,0,1,0,1.48-1.48Z" transform="translate(-13.76 -22.34)" style="fill: rgb(74, 155, 247);"/><path class="cls-11" d="M159.84,68.15a4.23,4.23,0,0,0-2.16-.63,3.33,3.33,0,0,0-2,.64.31.31,0,0,0-.1.15.25.25,0,0,0,0,.17.31.31,0,0,0,.15.1.25.25,0,0,0,.17,0,3.29,3.29,0,0,1,3.62,0,.23.23,0,0,0,.31-.07A.24.24,0,0,0,159.84,68.15Z" transform="translate(-13.76 -22.34)" style="fill: rgb(233, 198, 177);"/><path class="cls-11" d="M180.37,68.13a4.27,4.27,0,0,0-2.16-.62,3.38,3.38,0,0,0-2,.63.24.24,0,0,0-.09.15.25.25,0,0,0,0,.17.24.24,0,0,0,.15.09.21.21,0,0,0,.17,0,3.36,3.36,0,0,1,3.62,0,.24.24,0,0,0,.32-.06A.25.25,0,0,0,180.37,68.13Z" transform="translate(-13.76 -22.34)" style="fill: rgb(233, 198, 177);"/><path class="cls-16" d="M149.81,76.34l-.15-.19s0,.09,0,.27Z" transform="translate(-13.76 -22.34)" style="fill: rgb(250, 214, 157);"/><path d="M 143.760004 47.740002 A 0.6 0.6 0 0 1 143.160004 48.340002 A 0.6 0.6 0 0 1 142.560004 47.740002 A 0.6 0.6 0 0 1 143.160004 47.140002 A 0.6 0.6 0 0 1 143.760004 47.740002 Z" class="cls-2" style="fill: rgb(255, 255, 255);"/><path d="M 164.170007 47.740002 A 0.6 0.6 0 0 1 163.570007 48.340002 A 0.6 0.6 0 0 1 162.970007 47.740002 A 0.6 0.6 0 0 1 163.570007 47.140002 A 0.6 0.6 0 0 1 164.170007 47.740002 Z" class="cls-2" style="fill: rgb(255, 255, 255);"/><path class="cls-27" d="M185.92,75.62c-.19.44-2.32,4.37-17.83,4.42h-.58c-15.51-.05-17.64-4-17.83-4.42.1,1.89-.9,10.41,4.07,16.33,3.24,3.85,8.39,5.54,13.76,5.61h.58c5.37-.07,10.52-1.76,13.76-5.61C186.82,86,185.81,77.51,185.92,75.62Z" transform="translate(-13.76 -22.34)" style="fill: rgb(159, 134, 88);"/><path class="cls-2" d="M176.21,83a20.12,20.12,0,0,1-8.14,1.68,23.19,23.19,0,0,1-4.16-.42,18.17,18.17,0,0,1-4-1.29.2.2,0,0,1-.1-.26.19.19,0,0,1,.23-.1,30.18,30.18,0,0,0,8,1.14,25.72,25.72,0,0,0,4-.29,29.78,29.78,0,0,0,4-.88.22.22,0,0,1,.28.15A.23.23,0,0,1,176.21,83Z" transform="translate(-13.76 -22.34)" style="fill: rgb(255, 255, 255);"/><path class="cls-24" d="M171.92,85.45a6.66,6.66,0,0,1-1.79.67,7.81,7.81,0,0,1-1.91.2,9,9,0,0,1-1.92-.16,6.09,6.09,0,0,1-1.78-.74.15.15,0,0,1-.05-.22.15.15,0,0,1,.18-.08,14.25,14.25,0,0,0,1.77.36,15.05,15.05,0,0,0,1.79.07,13.48,13.48,0,0,0,1.8-.1,15.81,15.81,0,0,0,1.77-.35.18.18,0,0,1,.23.13A.18.18,0,0,1,171.92,85.45Z" transform="translate(-13.76 -22.34)" style="fill: rgb(253, 228, 209);"/><path class="cls-11" d="M170.52,76.76a1.32,1.32,0,0,1-.58,1.34,3.08,3.08,0,0,1-1.9.6,3.13,3.13,0,0,1-1.91-.6,1.33,1.33,0,0,1-.57-1.34,1.86,1.86,0,0,0,.87,1.13,3.23,3.23,0,0,0,3.22,0A1.86,1.86,0,0,0,170.52,76.76Z" transform="translate(-13.76 -22.34)" style="fill: rgb(233, 198, 177);"/><path d="M 16.65 87.169998 H 34.690001 V 153.470001 H 16.65 V 87.169998 Z" class="cls-4" style="fill: rgb(4, 30, 124);"/><path d="M 19.91 91.730003 H 31.43 V 127.950005 H 19.91 V 91.730003 Z" class="cls-16" style="fill: rgb(250, 214, 157);"/><path d="M 20.6 94.739998 H 30.740001 V 95.319998 H 20.6 V 94.739998 Z" class="cls-2" style="fill: rgb(255, 255, 255);"/><path d="M 20.6 96.849998 H 30.740001 V 97.429998 H 20.6 V 96.849998 Z" class="cls-2" style="fill: rgb(255, 255, 255);"/><path d="M 20.6 98.959999 H 30.740001 V 99.539999 H 20.6 V 98.959999 Z" class="cls-2" style="fill: rgb(255, 255, 255);"/><path d="M 20.6 101.07 H 30.740001 V 101.65 H 20.6 V 101.07 Z" class="cls-2" style="fill: rgb(255, 255, 255);"/><path d="M 36.59 87.169998 H 54.630001 V 153.470001 H 36.59 V 87.169998 Z" class="cls-18" style="fill: rgb(29, 27, 55);"/><path d="M 39.849998 91.730003 H 51.369999 V 127.950005 H 39.849998 V 91.730003 Z" class="cls-15" style="fill: rgb(233, 236, 248);"/><path class="cls-2" d="M43.65,162.87a4.23,4.23,0,1,1-4.22-4.22A4.22,4.22,0,0,1,43.65,162.87Z" transform="translate(-13.76 -22.34)" style="fill: rgb(255, 255, 255);"/><path class="cls-8" d="M63.59,162.87a4.23,4.23,0,1,1-4.22-4.22A4.22,4.22,0,0,1,63.59,162.87Z" transform="translate(-13.76 -22.34)" style="fill: rgb(153, 158, 163);"/><path class="cls-18" d="M304.69,138.71a2.62,2.62,0,0,0-2.62-2.62H285.62a2.62,2.62,0,0,0-2.62,2.62V173a2.65,2.65,0,0,0,.77,1.86,2.61,2.61,0,0,0,1.85.77h16.45a2.63,2.63,0,0,0,2.62-2.63Z" transform="translate(-13.76 -22.34)" style="fill: rgb(29, 27, 55);"/><path d="M 271.019989 117.019997 H 289.159988 V 149.359997 H 271.019989 V 117.019997 Z" class="cls-30" style="fill: rgb(247, 166, 60);"/><path class="cls-13" d="M284.78,139.36V171.7h18.13V139.36Z" transform="translate(-13.76 -22.34)" style="fill: rgb(11, 93, 226);"/><path class="cls-31" d="M299.06,151.15a5.22,5.22,0,0,0-10.44,0,5.12,5.12,0,0,0,.94,3l4.28,6.75,4.5-7.09h0A5.15,5.15,0,0,0,299.06,151.15Zm-5.22,2.13a2.14,2.14,0,1,1,2.13-2.13A2.13,2.13,0,0,1,293.84,153.28Z" transform="translate(-13.76 -22.34)" style="fill: url('#Új_mintázatos_színtár_1-25');"/><path d="M 0.62 159.25 H 308.399999 V 167.56 H 0.62 V 159.25 Z" class="cls-18" style="fill: rgb(29, 27, 55);"/><path d="M 28 167.570007 H 58.57 V 174.290007 H 28 V 167.570007 Z" class="cls-12" style="fill: rgb(203, 206, 216);"/><path d="M 250.919998 167.570007 H 281.489998 V 174.290007 H 250.919998 V 167.570007 Z" class="cls-12" style="fill: rgb(203, 206, 216);"/><path d="M 280.9599914550781 199.00999450683594 L 273.42999267578125 174.2899932861328 L 267.8699951171875 174.2899932861328 L 275.3900146484375 199.00999450683594 L 280.9599914550781 199.00999450683594 Z" class="cls-8" style="fill: rgb(153, 158, 163);"/><path d="M 256.55999755859375 199.00999450683594 L 264.0799865722656 174.2899932861328 L 258.5199890136719 174.2899932861328 L 250.99000549316406 199.00999450683594 L 256.55999755859375 199.00999450683594 Z" class="cls-8" style="fill: rgb(153, 158, 163);"/><path d="M 58.029998779296875 199.00999450683594 L 50.5099983215332 174.2899932861328 L 44.95000076293945 174.2899932861328 L 52.470001220703125 199.00999450683594 L 58.029998779296875 199.00999450683594 Z" class="cls-8" style="fill: rgb(153, 158, 163);"/><path d="M 33.630001068115234 199.00999450683594 L 41.15999984741211 174.2899932861328 L 35.59000015258789 174.2899932861328 L 28.06999969482422 199.00999450683594 L 33.630001068115234 199.00999450683594 Z" class="cls-8" style="fill: rgb(153, 158, 163);"/><path class="cls-32" d="M267.3,111.39v12l34.95-.15V111.54Zm33.93,10.93h-32.9v-9.91h32.9Z" transform="translate(-13.76 -22.34)" style="opacity: 0.2; fill: rgb(11, 93, 226);"/><path class="cls-32" d="M159.67,25.37H137.38c-1.34.27-2.68.55-4,.86l25.44-.08v8.43H137.07l-5.33-.05V26.63l-.86.21v7.7H107.76c-.64.26-1.27.55-1.9.82H116v8.79H88.85L87.43,45h15.09v8.3H75.25l-.87.67v.15H87.66V63H75.12v0H63.67l-.89.82,11.6,0v8.42H54.45c-.25.27-.5.53-.74.8h6.14v8.81H46.3l-.6.78,15,0V73l26.95,0v9.65l29-.09v-9.7H131.1V63.33H131V63H116.63V54H131.1V45l13.89,0V35.39h14.68ZM75.19,72.13v-8.3h27.33v8.3Zm40.58,9.66H88.44V73h27.33Zm14.69-9.61H108.7l-5.32-.05v-8.3l27.08-.07ZM88.44,63v-8.8h27.33V63Zm42-9.6H108.7l-5.32,0V45L116,45l14.43,0v8.43Zm13.67-9.17H116.81V35.39h27.32Z" transform="translate(-13.76 -22.34)" style="opacity: 0.2; fill: rgb(11, 93, 226);"/></svg>