<svg id="Layer" xmlns="http://www.w3.org/2000/svg" xmlns:xlink="http://www.w3.org/1999/xlink" viewBox="0 0 309.25 199.01"><defs><style>.cls-1{fill:none;}.cls-2,.cls-29{fill:#fff;}.cls-3,.cls-32{opacity:0.2;}.cls-32,.cls-4{fill:#4baf63;}.cls-5{fill:url(#radial-gradient);}.cls-6{fill:#f1f1f1;}.cls-7{fill:url(#radial-gradient-2);}.cls-8{fill:#999ea3;}.cls-9{fill:#4e5b5f;}.cls-10{fill:#4b2583;}.cls-11{fill:#e9c6b1;}.cls-12{fill:#cbced8;}.cls-13{fill:#6b4997;}.cls-14{fill:url(#Új_mintázatos_színtár_1);}.cls-15{fill:#e9ecf8;}.cls-16{fill:#fad69d;}.cls-17{fill:url(#Új_mintázatos_színtár_1-3);}.cls-18,.cls-28{fill:#1d1b37;}.cls-19{fill:#ffce44;}.cls-20{fill:url(#Új_mintázatos_színtár_1-9);}.cls-21{fill:#b3b3b3;}.cls-22{fill:url(#Új_mintázatos_színtár_1-13);}.cls-23{fill:#f29277;}.cls-24{fill:#fde4d1;}.cls-25{fill:url(#Névtelen_színátmenet_3);}.cls-26{fill:#e7b5a2;}.cls-27{fill:#fad28a;}.cls-28,.cls-29{fill-rule:evenodd;}.cls-29{opacity:0.5;}.cls-30{fill:#f7a63c;}.cls-31{fill:url(#Új_mintázatos_színtár_1-25);}</style><radialGradient id="radial-gradient" cx="60.7" cy="122.78" r="99.36" gradientUnits="userSpaceOnUse"><stop offset="0" stop-color="#fff"/><stop offset="1" stop-color="#010101"/></radialGradient><radialGradient id="radial-gradient-2" cx="97.08" cy="153.17" r="28.38" gradientUnits="userSpaceOnUse"><stop offset="0" stop-color="#fff"/><stop offset="1" stop-color="#f1f1f1"/></radialGradient><pattern id="Új_mintázatos_színtár_1" data-name="Új mintázatos színtár 1" width="38.25" height="55" patternUnits="userSpaceOnUse" viewBox="0 0 38.24 55"><rect class="cls-1" width="38.25" height="55"/><rect class="cls-2" width="38.25" height="55"/></pattern><pattern id="Új_mintázatos_színtár_1-3" data-name="Új mintázatos színtár 1" x="-13.76" y="-22.34" width="38.25" height="55" patternUnits="userSpaceOnUse" viewBox="0 0 38.24 55"><rect class="cls-1" width="38.25" height="55"/><rect class="cls-2" width="38.25" height="55"/></pattern><pattern id="Új_mintázatos_színtár_1-9" data-name="Új mintázatos színtár 1" width="38.25" height="55" patternTransform="translate(-15.62 -58.57) scale(1.04)" patternUnits="userSpaceOnUse" viewBox="0 0 38.24 55"><rect class="cls-1" width="38.25" height="55"/><rect class="cls-2" width="38.25" height="55"/></pattern><pattern id="Új_mintázatos_színtár_1-13" data-name="Új mintázatos színtár 1" width="38.25" height="55" patternTransform="translate(-1.87 -36.24) scale(1.04)" patternUnits="userSpaceOnUse" viewBox="0 0 38.24 55"><rect class="cls-1" width="38.25" height="55"/><rect class="cls-2" width="38.25" height="55"/></pattern><linearGradient id="Névtelen_színátmenet_3" x1="167.86" y1="93.34" x2="167.86" y2="40.57" gradientUnits="userSpaceOnUse"><stop offset="0" stop-color="#fde4d1"/><stop offset="0.39" stop-color="#fbe1ce"/><stop offset="0.69" stop-color="#f5d8c4"/><stop offset="0.97" stop-color="#eac8b3"/><stop offset="1" stop-color="#e9c6b1"/></linearGradient><pattern id="Új_mintázatos_színtár_1-25" data-name="Új mintázatos színtár 1" width="38.25" height="55" patternTransform="translate(13.9 -9.41) scale(0.87)" patternUnits="userSpaceOnUse" viewBox="0 0 38.24 55"><rect class="cls-1" width="38.25" height="55"/><rect class="cls-2" width="38.25" height="55"/></pattern></defs><title>eezy_24</title><g class="cls-3"><path class="cls-4" d="M212.75,63.57v60.14h51.32V63.57Zm48.8,57.55H215.27v-55h46.28Z" transform="translate(-13.76 -22.34)"/><rect class="cls-4" x="208.05" y="50.05" width="33.21" height="42.27"/></g><g id="_Csoport_" data-name="&lt;Csoport&gt;" class="cls-3"><g id="_Csoport_2" data-name="&lt;Csoport&gt;"><path id="_Görbe_" data-name="&lt;Görbe&gt;" class="cls-4" d="M168,22.34a154.2,154.2,0,0,0-154.2,154.2h308.4A154.2,154.2,0,0,0,168,22.34Z" transform="translate(-13.76 -22.34)"/></g></g><path class="cls-5" d="M142.64,153.89H117L77.07,90.29h65.57A1.74,1.74,0,0,1,144.37,92v60.15a1.73,1.73,0,0,1-1.73,1.72Z" transform="translate(-13.76 -22.34)"/><path class="cls-6" d="M50.31,150.07v2.1a2.46,2.46,0,0,0,2.46,2.46h89.87a2.46,2.46,0,0,0,2.46-2.46v-2.1Z" transform="translate(-13.76 -22.34)"/><path class="cls-7" d="M115,150.6l2.07,3.29h25.62a1.73,1.73,0,0,0,1.73-1.72V150.6Z" transform="translate(-13.76 -22.34)"/><path class="cls-8" d="M144.93,152.17a2.29,2.29,0,0,1-2.29,2.28H52.77a2.29,2.29,0,0,1-2.28-2.28V92a2.29,2.29,0,0,1,2.28-2.28h89.87A2.29,2.29,0,0,1,144.93,92Z" transform="translate(-13.76 -22.34)"/><rect class="cls-2" x="40.46" y="71.07" width="86.98" height="53.44"/><path class="cls-9" d="M108.51,160.83l-.88-6.38H87.79l-.88,6.38a5.33,5.33,0,0,1-2.48,3.77l-1.53.74h29.61L111,164.6A5.32,5.32,0,0,1,108.51,160.83Z" transform="translate(-13.76 -22.34)"/><path class="cls-10" d="M226.19,122c0-15.8-15.26-24.55-25.63-28.8-9.54-3.9-19.67-6.84-19.67-6.84-2.39,9.36-11.8,10.49-13.62,10.62a13.94,13.94,0,0,1-12.54-10.62s-8.22,2.71-19.67,6.84c-9.15,3.31-23.9,11.9-25.49,26.22a61.23,61.23,0,0,1-1.56,9c-2.45,9.12-8.47,24.66-21,24.66v22.43H226.1S226.19,124.72,226.19,122Z" transform="translate(-13.76 -22.34)"/><path id="Shape_11_copy" data-name="Shape 11 copy" class="cls-11" d="M150.17,67c0-.87-1.1-1.56-2.27-1.41h0a2.48,2.48,0,0,0-1.69,1.15,3,3,0,0,0-.35,1.31c0,.14-.22,7.86,4.86,7.86C150.48,73.42,150.27,69.07,150.17,67Z" transform="translate(-13.76 -22.34)"/><path id="Shape_11_copy-2" data-name="Shape 11 copy" class="cls-11" d="M185.62,67c0-.87,1.1-1.56,2.27-1.41h0a2.48,2.48,0,0,1,1.69,1.15A3,3,0,0,1,190,68c0,.14.22,7.86-4.86,7.86C185.31,73.42,185.52,69.07,185.62,67Z" transform="translate(-13.76 -22.34)"/><g id="_Csoport_3" data-name="&lt;Csoport&gt;"><g id="_Csoport_4" data-name="&lt;Csoport&gt;"><path id="_Görbe_2" data-name="&lt;Görbe&gt;" class="cls-12" d="M322.19,177.18H14.93a.82.82,0,0,1-.81-.82.81.81,0,0,1,.81-.81H322.19a.81.81,0,0,1,.81.81A.82.82,0,0,1,322.19,177.18Z" transform="translate(-13.76 -22.34)"/></g></g><path class="cls-13" d="M196.6,155.87h1.19a.72.72,0,0,0,.72-.72v-7.63a.73.73,0,0,0-.72-.72H196.6v-1.43h75.87a2.15,2.15,0,0,1,2.15,2.15v7.63a2.15,2.15,0,0,1-2.15,2.15H196.6Z" transform="translate(-13.76 -22.34)"/><path class="cls-14" d="M197.79,146.8h74.68a.73.73,0,0,1,.72.72v7.63a.72.72,0,0,1-.72.72H197.79Z" transform="translate(-13.76 -22.34)"/><rect class="cls-4" x="176.06" y="135.01" width="85.14" height="18.13"/><rect class="cls-15" x="238.41" y="135.01" width="12.65" height="18.13"/><rect class="cls-16" x="204.46" y="113.8" width="56.4" height="9.17"/><rect class="cls-17" x="249.55" y="113.8" width="1.96" height="9.17"/><rect class="cls-17" x="212.65" y="113.8" width="1.96" height="9.17"/><path class="cls-14" d="M255.93,140.72a2.57,2.57,0,1,1,2.56,2.56A2.56,2.56,0,0,1,255.93,140.72Z" transform="translate(-13.76 -22.34)"/><path class="cls-18" d="M116.9,169.54H221.76V104.6a2.68,2.68,0,0,0-2.67-2.67H116.9a2.68,2.68,0,0,0-2.68,2.67v64.94Z" transform="translate(-13.76 -22.34)"/><rect class="cls-19" x="105.25" y="85.37" width="97.94" height="56.75"/><rect class="cls-20" x="114.16" y="90.53" width="80.15" height="46.44"/><rect class="cls-12" x="114.16" y="90.53" width="80.15" height="5.12"/><rect class="cls-4" x="117.66" y="98.64" width="45.96" height="25.46"/><rect class="cls-4" x="166.72" y="98.64" width="10.26" height="7.68"/><rect class="cls-12" x="117.87" y="126.39" width="11.49" height="0.79"/><rect class="cls-12" x="117.87" y="128.45" width="45.75" height="0.39"/><rect class="cls-12" x="117.87" y="129.73" width="45.75" height="0.39"/><rect class="cls-12" x="117.87" y="131" width="45.75" height="0.39"/><rect class="cls-12" x="117.87" y="132.28" width="45.75" height="0.39"/><rect class="cls-12" x="117.87" y="133.55" width="36.37" height="0.39"/><rect class="cls-12" x="178.89" y="101.51" width="13.11" height="0.39"/><rect class="cls-12" x="178.89" y="102.79" width="13.11" height="0.39"/><rect class="cls-12" x="178.89" y="104.06" width="13.11" height="0.39"/><rect class="cls-12" x="178.89" y="105.34" width="13.11" height="0.39"/><rect class="cls-20" x="128.11" y="92.02" width="57.77" height="2.06"/><rect class="cls-21" x="178.89" y="99.16" width="8.84" height="0.79"/><rect class="cls-12" x="178.89" y="111.08" width="13.11" height="0.39"/><rect class="cls-12" x="178.89" y="112.35" width="13.11" height="0.39"/><rect class="cls-12" x="178.89" y="113.63" width="13.11" height="0.39"/><rect class="cls-12" x="178.89" y="114.91" width="13.11" height="0.39"/><rect class="cls-21" x="178.89" y="108.73" width="8.84" height="0.79"/><rect class="cls-12" x="178.89" y="120.64" width="13.11" height="0.39"/><rect class="cls-12" x="178.89" y="121.92" width="13.11" height="0.39"/><rect class="cls-12" x="178.89" y="123.19" width="13.11" height="0.39"/><rect class="cls-12" x="178.89" y="124.47" width="13.11" height="0.39"/><rect class="cls-21" x="178.89" y="118.29" width="8.84" height="0.79"/><rect class="cls-12" x="178.89" y="130.21" width="13.11" height="0.39"/><rect class="cls-12" x="178.89" y="131.48" width="13.11" height="0.39"/><rect class="cls-12" x="178.89" y="132.76" width="13.11" height="0.39"/><rect class="cls-12" x="178.89" y="134.04" width="13.11" height="0.39"/><rect class="cls-21" x="178.89" y="127.86" width="8.84" height="0.79"/><rect class="cls-4" x="166.72" y="108.17" width="10.26" height="7.69"/><rect class="cls-4" x="166.72" y="117.71" width="10.26" height="7.68"/><rect class="cls-4" x="166.72" y="127.24" width="10.26" height="7.68"/><path class="cls-22" d="M231.68,169.44H104.31c0,.22-.07.42-.07.65V172c0,3.2,2.59,3.39,5.8,3.39h115.9c3.19,0,5.81-.19,5.81-3.39v-1.94C231.75,169.86,231.69,169.66,231.68,169.44Z" transform="translate(-13.76 -22.34)"/><path class="cls-12" d="M154.37,169.44c.06,1.68.57,2.41,1.21,2.41H180.4c.64,0,1.15-.73,1.22-2.41Z" transform="translate(-13.76 -22.34)"/><path class="cls-22" d="M153.58,129.14A4.82,4.82,0,1,0,158.4,134,4.82,4.82,0,0,0,153.58,129.14Zm2,5L152.42,136c-.21.13-.38,0-.38-.22v-3.64c0-.24.17-.34.38-.22l3.16,1.82A.23.23,0,0,1,155.58,134.18Z" transform="translate(-13.76 -22.34)"/><path class="cls-22" d="M185.6,122.71a2.29,2.29,0,1,0,2.28,2.28A2.28,2.28,0,0,0,185.6,122.71Zm1,2.39-1.5.86c-.1.06-.18,0-.18-.1v-1.73c0-.11.08-.16.18-.1l1.5.86C186.65,125,186.65,125,186.55,125.1Z" transform="translate(-13.76 -22.34)"/><path class="cls-22" d="M185.6,132.07a2.29,2.29,0,1,0,2.28,2.28A2.28,2.28,0,0,0,185.6,132.07Zm1,2.39-1.5.86c-.1.06-.18,0-.18-.1v-1.73c0-.11.08-.16.18-.1l1.5.86C186.65,134.31,186.65,134.4,186.55,134.46Z" transform="translate(-13.76 -22.34)"/><path class="cls-22" d="M185.6,141.43a2.28,2.28,0,1,0,2.28,2.28A2.28,2.28,0,0,0,185.6,141.43Zm1,2.39-1.5.86c-.1.06-.18,0-.18-.11v-1.72c0-.12.08-.17.18-.11l1.5.87C186.65,143.66,186.65,143.76,186.55,143.82Z" transform="translate(-13.76 -22.34)"/><path class="cls-22" d="M185.6,150.79a2.28,2.28,0,1,0,2.28,2.28A2.28,2.28,0,0,0,185.6,150.79Zm1,2.39-1.5.86c-.1.06-.18,0-.18-.11v-1.72c0-.12.08-.16.18-.11l1.5.87C186.65,153,186.65,153.12,186.55,153.18Z" transform="translate(-13.76 -22.34)"/><path class="cls-23" d="M131.78,115.1a1.12,1.12,0,1,1-1.4-.75A1.12,1.12,0,0,1,131.78,115.1Z" transform="translate(-13.76 -22.34)"/><circle class="cls-19" cx="120.6" cy="93.09" r="1.12"/><circle class="cls-4" cx="124.25" cy="93.09" r="1.12"/><rect class="cls-18" x="185.87" y="92.02" width="6.3" height="2.19"/><path class="cls-4" d="M168.82,104.88a1.09,1.09,0,1,1-1.09-1.09A1.09,1.09,0,0,1,168.82,104.88Z" transform="translate(-13.76 -22.34)"/><path class="cls-2" d="M82.29,161.07c-9.33,0-16.89,6.55-16.89,14.64H99.18C99.18,167.62,91.62,161.07,82.29,161.07Z" transform="translate(-13.76 -22.34)"/><path class="cls-24" d="M91.83,160.21c.67-3.58,2.42-5.84,3.68-5.84a3.5,3.5,0,0,0,0-7c-3.61,0-6.76,2.41-8.74,6.2a3.49,3.49,0,0,0-5.36-.4,3.46,3.46,0,0,0-4.75-.24,4,4,0,0,0-2.48-.83c-1.94,0-3.5,1.27-3.5,2.83v10.48c0,1.57,1.56,2.83,3.5,2.83a4.39,4.39,0,0,0,1.22-.18v.49a3.5,3.5,0,0,0,3.5,3.5A3.46,3.46,0,0,0,81.41,171a3.5,3.5,0,0,0,6-2.43v-1.9a3.08,3.08,0,0,0,.61.07c3.7,0,6.71,2.46,6.71,5.49a3.5,3.5,0,1,0,7,0C101.75,166.52,97.55,161.72,91.83,160.21Z" transform="translate(-13.76 -22.34)"/><path class="cls-25" d="M186.9,64.54c0-18.89-8.52-24-19-24h0c-10.51,0-19,6.13-19,24h0c0,23.37,8.53,28.79,19.05,28.79h0c10.52,0,19-5.79,19-28.79h0Z" transform="translate(-13.76 -22.34)"/><path class="cls-26" d="M167.86,93.34h0c-5.53,0-10.5-1.5-14-6.3a14,14,0,0,0,28-.16C178.36,91.74,173.38,93.34,167.86,93.34Z" transform="translate(-13.76 -22.34)"/><path class="cls-4" d="M178.2,68.57h0A1.47,1.47,0,0,1,176.72,70h0a1.48,1.48,0,1,0,1.48-1.48Z" transform="translate(-13.76 -22.34)"/><path class="cls-4" d="M157.89,68.57h0A1.49,1.49,0,0,1,156.41,70h0a1.48,1.48,0,1,0,1.48-1.48Z" transform="translate(-13.76 -22.34)"/><path class="cls-11" d="M159.84,68.15a4.23,4.23,0,0,0-2.16-.63,3.33,3.33,0,0,0-2,.64.31.31,0,0,0-.1.15.25.25,0,0,0,0,.17.31.31,0,0,0,.15.1.25.25,0,0,0,.17,0,3.29,3.29,0,0,1,3.62,0,.23.23,0,0,0,.31-.07A.24.24,0,0,0,159.84,68.15Z" transform="translate(-13.76 -22.34)"/><path class="cls-11" d="M180.37,68.13a4.27,4.27,0,0,0-2.16-.62,3.38,3.38,0,0,0-2,.63.24.24,0,0,0-.09.15.25.25,0,0,0,0,.17.24.24,0,0,0,.15.09.21.21,0,0,0,.17,0,3.36,3.36,0,0,1,3.62,0,.24.24,0,0,0,.32-.06A.25.25,0,0,0,180.37,68.13Z" transform="translate(-13.76 -22.34)"/><path class="cls-16" d="M149.81,76.34l-.15-.19s0,.09,0,.27Z" transform="translate(-13.76 -22.34)"/><circle class="cls-2" cx="143.16" cy="47.74" r="0.6"/><circle class="cls-2" cx="163.57" cy="47.74" r="0.6"/><path class="cls-27" d="M185.92,75.62c-.19.44-2.32,4.37-17.83,4.42h-.58c-15.51-.05-17.64-4-17.83-4.42.1,1.89-.9,10.41,4.07,16.33,3.24,3.85,8.39,5.54,13.76,5.61h.58c5.37-.07,10.52-1.76,13.76-5.61C186.82,86,185.81,77.51,185.92,75.62Z" transform="translate(-13.76 -22.34)"/><path class="cls-2" d="M176.21,83a20.12,20.12,0,0,1-8.14,1.68,23.19,23.19,0,0,1-4.16-.42,18.17,18.17,0,0,1-4-1.29.2.2,0,0,1-.1-.26.19.19,0,0,1,.23-.1,30.18,30.18,0,0,0,8,1.14,25.72,25.72,0,0,0,4-.29,29.78,29.78,0,0,0,4-.88.22.22,0,0,1,.28.15A.23.23,0,0,1,176.21,83Z" transform="translate(-13.76 -22.34)"/><path class="cls-24" d="M171.92,85.45a6.66,6.66,0,0,1-1.79.67,7.81,7.81,0,0,1-1.91.2,9,9,0,0,1-1.92-.16,6.09,6.09,0,0,1-1.78-.74.15.15,0,0,1-.05-.22.15.15,0,0,1,.18-.08,14.25,14.25,0,0,0,1.77.36,15.05,15.05,0,0,0,1.79.07,13.48,13.48,0,0,0,1.8-.1,15.81,15.81,0,0,0,1.77-.35.18.18,0,0,1,.23.13A.18.18,0,0,1,171.92,85.45Z" transform="translate(-13.76 -22.34)"/><path class="cls-28" d="M188.21,65.62c-.05-.71-.08-.79-1.13-1.09a47.35,47.35,0,0,0-9.46-.36l-.53,0c-3.4.32-7.84,1.36-9,1.34-2.78,0-6.5-1.14-9.58-1.37-.66,0-1.39-.07-2.13-.07a43.15,43.15,0,0,0-7.32.46c-1.06.3-1.09.37-1.14,1.08s.09,1.32.71,1.51c.86.25.86,1.19,1.43,3.92.51,2.48,1.75,4.44,7.09,4.79a10.37,10.37,0,0,0,2.75-.15,6.73,6.73,0,0,0,4.76-3.49c1-1.71.74-4,3.39-4s2.34,2.36,3.35,4.07c.57,1,2.33,3.94,7.57,3.58.56,0,1.08-.09,1.55-.17,4-.61,5.08-2.41,5.53-4.63.56-2.73.57-3.68,1.42-3.93C188.13,66.94,188.26,66.33,188.21,65.62ZM160.92,74.7a6.19,6.19,0,0,1-1.19.35c-2.7.51-6.71-.2-7.93-2.14-1.37-2.17-1.71-6.55,0-7.47a14.69,14.69,0,0,1,4.81-.59c3.11,0,6.72.48,7.9,1.87C166.26,68.73,163.52,73.61,160.92,74.7Zm23.47-1.82c-.69,1.11-2.29,1.82-4,2.12a9.85,9.85,0,0,1-5.09-.31c-2.6-1.09-5.34-6-3.65-8,.91-1.07,3.25-1.61,5.69-1.8,3-.24,6.17,0,7,.49C186.09,66.32,185.76,70.71,184.39,72.88Z" transform="translate(-13.76 -22.34)"/><path class="cls-29" d="M184.34,65.41c1.75.91,1.42,5.3,0,7.47s-6.59,2.86-9.12,1.81-5.34-6-3.65-8c2-2.39,11.16-2.12,12.72-1.31Zm-32.54,7.5c1.42,2.26,6.6,2.85,9.12,1.79s5.34-6,3.63-8c-2-2.38-11.15-2.09-12.71-1.28C150.09,66.36,150.43,70.74,151.8,72.91Z" transform="translate(-13.76 -22.34)"/><path class="cls-11" d="M170.52,76.76a1.32,1.32,0,0,1-.58,1.34,3.08,3.08,0,0,1-1.9.6,3.13,3.13,0,0,1-1.91-.6,1.33,1.33,0,0,1-.57-1.34,1.86,1.86,0,0,0,.87,1.13,3.23,3.23,0,0,0,3.22,0A1.86,1.86,0,0,0,170.52,76.76Z" transform="translate(-13.76 -22.34)"/><rect class="cls-4" x="16.65" y="87.17" width="18.04" height="66.3"/><rect class="cls-16" x="19.91" y="91.73" width="11.52" height="36.22"/><rect class="cls-2" x="20.6" y="94.74" width="10.14" height="0.58"/><rect class="cls-2" x="20.6" y="96.85" width="10.14" height="0.58"/><rect class="cls-2" x="20.6" y="98.96" width="10.14" height="0.58"/><rect class="cls-2" x="20.6" y="101.07" width="10.14" height="0.58"/><rect class="cls-18" x="36.59" y="87.17" width="18.04" height="66.3"/><rect class="cls-15" x="39.85" y="91.73" width="11.52" height="36.22"/><path class="cls-2" d="M43.65,162.87a4.23,4.23,0,1,1-4.22-4.22A4.22,4.22,0,0,1,43.65,162.87Z" transform="translate(-13.76 -22.34)"/><path class="cls-8" d="M63.59,162.87a4.23,4.23,0,1,1-4.22-4.22A4.22,4.22,0,0,1,63.59,162.87Z" transform="translate(-13.76 -22.34)"/><path class="cls-18" d="M304.69,138.71a2.62,2.62,0,0,0-2.62-2.62H285.62a2.62,2.62,0,0,0-2.62,2.62V173a2.65,2.65,0,0,0,.77,1.86,2.61,2.61,0,0,0,1.85.77h16.45a2.63,2.63,0,0,0,2.62-2.63Z" transform="translate(-13.76 -22.34)"/><rect class="cls-30" x="271.02" y="117.02" width="18.14" height="32.34"/><path class="cls-13" d="M284.78,139.36V171.7h18.13V139.36Z" transform="translate(-13.76 -22.34)"/><path class="cls-31" d="M299.06,151.15a5.22,5.22,0,0,0-10.44,0,5.12,5.12,0,0,0,.94,3l4.28,6.75,4.5-7.09h0A5.15,5.15,0,0,0,299.06,151.15Zm-5.22,2.13a2.14,2.14,0,1,1,2.13-2.13A2.13,2.13,0,0,1,293.84,153.28Z" transform="translate(-13.76 -22.34)"/><rect class="cls-18" x="0.62" y="159.25" width="307.78" height="8.31"/><rect class="cls-12" x="28" y="167.57" width="30.57" height="6.72"/><rect class="cls-12" x="250.92" y="167.57" width="30.57" height="6.72"/><polygon class="cls-8" points="280.96 199.01 273.43 174.29 267.87 174.29 275.39 199.01 280.96 199.01"/><polygon class="cls-8" points="256.56 199.01 264.08 174.29 258.52 174.29 250.99 199.01 256.56 199.01"/><polygon class="cls-8" points="58.03 199.01 50.51 174.29 44.95 174.29 52.47 199.01 58.03 199.01"/><polygon class="cls-8" points="33.63 199.01 41.16 174.29 35.59 174.29 28.07 199.01 33.63 199.01"/><path class="cls-32" d="M267.3,111.39v12l34.95-.15V111.54Zm33.93,10.93h-32.9v-9.91h32.9Z" transform="translate(-13.76 -22.34)"/><path class="cls-32" d="M159.67,25.37H137.38c-1.34.27-2.68.55-4,.86l25.44-.08v8.43H137.07l-5.33-.05V26.63l-.86.21v7.7H107.76c-.64.26-1.27.55-1.9.82H116v8.79H88.85L87.43,45h15.09v8.3H75.25l-.87.67v.15H87.66V63H75.12v0H63.67l-.89.82,11.6,0v8.42H54.45c-.25.27-.5.53-.74.8h6.14v8.81H46.3l-.6.78,15,0V73l26.95,0v9.65l29-.09v-9.7H131.1V63.33H131V63H116.63V54H131.1V45l13.89,0V35.39h14.68ZM75.19,72.13v-8.3h27.33v8.3Zm40.58,9.66H88.44V73h27.33Zm14.69-9.61H108.7l-5.32-.05v-8.3l27.08-.07ZM88.44,63v-8.8h27.33V63Zm42-9.6H108.7l-5.32,0V45L116,45l14.43,0v8.43Zm13.67-9.17H116.81V35.39h27.32Z" transform="translate(-13.76 -22.34)"/></svg>